<svg xmlns="http://www.w3.org/2000/svg" xmlns:svg="http://www.w3.org/2000/svg" xmlns:xlink="http://www.w3.org/1999/xlink" id="svg4427" width="68.267" height="68.267" version="1.1"><defs id="defs4429"><linearGradient id="linearGradient5668"><stop id="stop5670" offset="0" style="stop-color:#75b54b;stop-opacity:1"/><stop id="stop5672" offset="1" style="stop-color:#75b54b;stop-opacity:.6"/></linearGradient><linearGradient id="linearGradient5084"><stop id="stop5086" offset="0" style="stop-color:#000;stop-opacity:.8"/><stop id="stop5088" offset="1" style="stop-color:#000;stop-opacity:.35"/></linearGradient><linearGradient id="linearGradient5072" x1="6.734" x2="50.507" y1="28.511" y2="61.774" gradientTransform="translate(-0.01532073,-0.00938002)" gradientUnits="userSpaceOnUse" xlink:href="#linearGradient5668"/><linearGradient id="linearGradient5082" x1="14.312" x2="44.097" y1="9.795" y2="82.973" gradientUnits="userSpaceOnUse" xlink:href="#linearGradient5084"/><linearGradient id="linearGradient3281" x1="6.734" x2="50.507" y1="28.511" y2="61.774" gradientTransform="translate(-0.01532073,-0.00938002)" gradientUnits="userSpaceOnUse" xlink:href="#linearGradient5668"/><linearGradient id="linearGradient3283" x1="6.734" x2="50.507" y1="28.511" y2="61.774" gradientTransform="translate(-0.01532073,-0.00938002)" gradientUnits="userSpaceOnUse" xlink:href="#linearGradient5668"/><linearGradient id="linearGradient3288" x1="14.312" x2="44.097" y1="9.795" y2="82.973" gradientUnits="userSpaceOnUse" xlink:href="#linearGradient5084"/><linearGradient id="linearGradient3290" x1="14.312" x2="44.097" y1="9.795" y2="82.973" gradientUnits="userSpaceOnUse" xlink:href="#linearGradient5084"/><linearGradient id="linearGradient5580"><stop style="stop-color:#000;stop-opacity:.0627451" id="stop5576" offset="0"/><stop style="stop-color:#252424;stop-opacity:.58823532" id="stop5578" offset="1"/></linearGradient><linearGradient id="linearGradient3999"><stop id="stop3995" offset="0" style="stop-color:#777;stop-opacity:1"/><stop id="stop3997" offset="1" style="stop-color:#4f4e4e;stop-opacity:1"/></linearGradient><linearGradient id="linearGradient2727"><stop id="stop2723" offset="0" style="stop-color:#7f8080;stop-opacity:1"/><stop id="stop2725" offset="1" style="stop-color:#404040;stop-opacity:1"/></linearGradient><linearGradient id="linearGradient2050" x1="36.546" x2="86.416" y1="33.805" y2="97.066" gradientTransform="translate(-0.0016031,-4.5764148e-4)" gradientUnits="userSpaceOnUse" xlink:href="#linearGradient2727"/><radialGradient id="radialGradient2052" cx="34.133" cy="34.133" r="29.867" fx="34.133" fy="34.133" gradientTransform="translate(-0.00142193,-4.5702768e-4)" gradientUnits="userSpaceOnUse" xlink:href="#linearGradient3999"/><linearGradient id="linearGradient2140" x1="29.867" x2="38.4" y1="29.868" y2="38.401" gradientTransform="translate(-0.0010513,-9.083059e-4)" gradientUnits="userSpaceOnUse" xlink:href="#linearGradient5580"/></defs><metadata id="metadata4432"/><g id="layer1"><g id="g2048" transform="translate(9.113e-4,0.00104183)"><rect style="fill:url(#linearGradient2050);fill-opacity:1;stroke:none;stroke-width:17.0667" id="rect2026" width="68.267" height="68.267" x="-.002" y="0" rx="8.533" ry="8.533"/><rect id="rect2028" width="59.733" height="59.733" x="4.265" y="4.266" rx="4.267" ry="4.267" style="opacity:.5;fill:url(#radialGradient2052);fill-opacity:1;stroke:none;stroke-width:14.9333"/><path style="opacity:1;fill:url(#linearGradient2140);fill-opacity:1;stroke:none;stroke-width:17.06666756" id="path2046" d="m 8.5322887,-9.083059e-4 c -4.72747,0 -8.5332,3.8057359059 -8.5332,8.5332029059 V 59.731515 c 0,4.727467 3.80573,8.535156 8.5332,8.535156 H 59.731502 c 4.72747,0 8.5332,-3.807689 8.5332,-8.535156 V 8.5322946 c 0,-4.727467 -3.80573,-8.5332029059 -8.5332,-8.5332029059 z m 0,4.2675779059 H 59.731502 c 2.36373,0 4.26758,1.901892 4.26758,4.265625 V 59.731515 c 0,2.363733 -1.90385,4.267578 -4.26758,4.267578 H 8.5322887 c -2.36373,0 -4.26758,-1.903845 -4.26758,-4.267578 V 8.5322946 c 0,-2.363733 1.90385,-4.265625 4.26758,-4.265625 z"/></g><path style="fill:#000;fill-opacity:.494118;fill-rule:evenodd;stroke:none;stroke-width:.999996px;stroke-linecap:butt;stroke-linejoin:miter;stroke-opacity:1" id="path1382" d="m 17.343575,15.030602 -1e-6,43.517002 38.229105,-21.758501 z"/><path style="fill:#0f6;fill-opacity:1;fill-rule:evenodd;stroke:none;stroke-width:.999996px;stroke-linecap:butt;stroke-linejoin:miter;stroke-opacity:1" id="path1059" d="m 16.888808,11.986385 -1e-6,43.517003 38.229104,-21.758501 z"/><path id="path13539" d="M 19.576616,50.882478 C 29.612077,45.170295 39.647539,39.458112 49.682999,33.745928 39.647539,28.032869 29.612077,22.319811 19.576616,16.606753 c 0,11.425241 0,22.850484 0,34.275725 z" style="fill:#f0f;fill-opacity:.992157;fill-rule:evenodd;stroke:none;stroke-width:.999996px;stroke-linecap:butt;stroke-linejoin:miter;stroke-opacity:1"/></g></svg>